# xmcd
#
# Track frame offsets:
#	150
#	14787
#	27805
#	42038
#	56337
#	70401
#	86291
#	101990
#	115952
#	133840
#	152324
#	166101
#	181203
#	197347
#	211770
#	228403
#	241161
#	254961
#
# Disc length: 3569 seconds
#
# Revision: 0
# Processed by: cddbd v1.5.2PL0 Copyright (c) Steve Scherf et al.
# Submitted via: EZCDAudioConverter 4.0.5.1
#
DISCID=eb0def12
DTITLE=Various Artist - ERG NU COUNTRY TRAXX VOL 249 US
DYEAR=2020
DGENRE=COUNTRY
TTITLE0=Blake Shelton duet with Gwen Stefani - Nobody But You
TTITLE1=Hardy ft. Lauren Alaina and Devin Dawson - One Beer
TTITLE2=Brandon Lay - For My Money
TTITLE3=Black Mountain Whiskey Rebellion - Stillhouse Blues
TTITLE4=Wes Mack - Just Getting Warmed Up
TTITLE5=Richard Schroder - We All Start Somewhere
TTITLE6=Don Amero - Morning Coffee
TTITLE7=The Ashley Sisters - Country Music Kinda Love
TTITLE8=The Green Rumours - Holding Horses
TTITLE9=Brittany Bexton - Believe Again
TTITLE10=Chris Bandi - Man Enough Now
TTITLE11=Tyler Joe Miller - Pillow Talkin'
TTITLE12=Bailey Callahan - Roll
TTITLE13=Raise - God Is A Woman Too
TTITLE14=Past The Perimeter - Catch A Little Buzz
TTITLE15=Amanda Jordan - Driving In The Dark
TTITLE16=The Dungarees - Twenty Something
TTITLE17=Leanne Pearson - Hot Pursuit
EXTD=
EXTT0=
EXTT1=
EXTT2=
EXTT3=
EXTT4=
EXTT5=
EXTT6=
EXTT7=
EXTT8=
EXTT9=
EXTT10=
EXTT11=
EXTT12=
EXTT13=
EXTT14=
EXTT15=
EXTT16=
EXTT17=
PLAYORDER=
